<?xml version="1.0" encoding="utf-8"?>
<!-- Generator: Adobe Illustrator 24.2.3, SVG Export Plug-In . SVG Version: 6.00 Build 0)  -->
<svg version="1.1" id="Capa_1" xmlns="http://www.w3.org/2000/svg" xmlns:xlink="http://www.w3.org/1999/xlink" x="0px" y="0px"
	 viewBox="0 0 182 182" style="enable-background:new 0 0 182 182;" xml:space="preserve">
<style type="text/css">
	.st0{fill:#F35111;}
</style>
<g>
	<g>
		<path class="st0" d="M31.9,91c0-29.5,21.8-54,50.1-58.4v12.9l36.4-22.8L81.9,0v14.2C43.5,18.8,13.6,51.4,13.6,91
			c0,27.8,14.8,52.2,36.8,65.8l17.9-11.1C46.9,136.7,31.9,115.6,31.9,91z"/>
		<path class="st0" d="M131.5,25.2l-17.9,11.2c21.4,8.9,36.5,30,36.5,54.6c0,29.5-21.7,54-50.1,58.4v-12.9l-36.4,22.8l36.4,22.7
			v-14.2c38.4-4.5,68.3-37.2,68.3-76.8C168.4,63.2,153.6,38.9,131.5,25.2z"/>
		<path class="st0" d="M95.4,130.8v-9.9c11.2-2,17.4-9.4,17.4-18c0-8.8-4.7-14.1-16.3-18.2c-8.3-3.1-11.7-5.2-11.7-8.4
			c0-2.7,2-5.5,8.4-5.5c7,0,11.5,2.2,14,3.3l2.8-11c-3.2-1.6-7.6-2.9-14.1-3.2v-8.6h-9.6v9.3c-10.4,2-16.5,8.8-16.5,17.4
			c0,9.5,7.1,14.3,17.6,17.8c7.2,2.4,10.3,4.8,10.3,8.5c0,3.9-3.8,6-9.4,6c-6.3,0-12.1-2-16.2-4.3l-2.9,11.4
			c3.7,2.1,10,3.9,16.6,4.2v9.3L95.4,130.8L95.4,130.8z"/>
	</g>
</g>
</svg>
