<?xml version="1.0" encoding="utf-8"?>
<!-- Generator: Adobe Illustrator 24.2.3, SVG Export Plug-In . SVG Version: 6.00 Build 0)  -->
<svg version="1.1" id="Capa_1" xmlns="http://www.w3.org/2000/svg" xmlns:xlink="http://www.w3.org/1999/xlink" x="0px" y="0px"
	 viewBox="0 0 32.8 32.8" style="enable-background:new 0 0 32.8 32.8;" xml:space="preserve">
<style type="text/css">
	.st0{fill:#DF003E;}
</style>
<g>
	<path class="st0" d="M2.3,16.8c0.8-0.9,1.9-1.4,3.1-1.4c0.9,0,1.8,0.3,2.6,1l4.4,3.8V4c0-2.2,1.8-4,4-4s4,1.8,4,4v16.1l4.4-3.8
		c1.7-1.4,4.2-1.2,5.6,0.5c1.4,1.7,1.2,4.2-0.5,5.6l-11,9.4c-1.5,1.3-3.7,1.3-5.2,0l-11-9.4C1.1,21,0.9,18.5,2.3,16.8z"/>
</g>
</svg>
