<?xml version="1.0" encoding="utf-8"?>
<!-- Generator: Adobe Illustrator 24.2.3, SVG Export Plug-In . SVG Version: 6.00 Build 0)  -->
<svg version="1.1" id="Capa_1" xmlns="http://www.w3.org/2000/svg" xmlns:xlink="http://www.w3.org/1999/xlink" x="0px" y="0px"
	 viewBox="0 0 50 50" style="enable-background:new 0 0 50 50;" xml:space="preserve">
<style type="text/css">
	.st0{fill:#270089;}
	.st1{fill:#DCF5FF;}
	.st2{fill:#97E4F9;}
	.st3{fill:#0ACEFA;}
	.st4{fill:#09A6EE;}
	.st5{fill:#B1ABB5;}
	.st6{fill:#786E79;}
	.st7{fill:#554E57;}
	.st8{fill:#453E43;}
</style>
<g>
	<path class="st0" d="M49.4,19.5c-2.6,1.6-5.3,3.3-8,4.9c2.6,1.6,5.2,3.2,7.8,4.8c-0.2,0.1-0.3,0.2-0.4,0.3
		c-2.6,1.6-5.3,3.1-7.9,4.7c-0.3,0.2-0.4,0.4-0.4,0.8c0,1.9,0,3.9,0,5.8c0,0.3-0.1,0.5-0.4,0.6c-4.9,2.7-9.8,5.5-14.7,8.3
		c-0.3,0.1-0.4,0.1-0.7,0c-4.9-2.8-9.8-5.5-14.7-8.2c-0.3-0.2-0.4-0.3-0.4-0.7c0-1.7,0-3.4,0-5c0-0.4-0.1-0.7-0.5-0.9
		c-2.8-1.6-5.5-3.1-8.2-4.7c-0.1-0.1-0.3-0.2-0.5-0.3c2.8-1.7,5.5-3.4,8.4-5.2c-2.8-1.8-5.6-3.5-8.4-5.2c0.2-0.1,0.4-0.2,0.5-0.3
		c3.8-2.2,7.5-4.3,11.3-6.5c0.4-0.2,0.5-0.4,0.5-0.9C12.9,6.3,17.4,1.6,22.9,1c5.8-0.6,11.4,3.8,12.2,9.6c0.1,0.5,0.3,0.8,0.7,1
		C40.4,14.2,44.9,16.8,49.4,19.5C49.4,19.4,49.4,19.5,49.4,19.5z M24,21.5c5.3,0,9.3-4,9.3-9.3C33.2,7,29.2,3,24,3s-9.3,4-9.3,9.3
		C14.7,17.5,18.7,21.5,24,21.5z M12.6,24.7c0.2,0.1,0.4,0.2,0.5,0.3c3.8,2.2,7.7,4.3,11.5,6.5c0.3,0.2,0.6,0.2,0.9,0
		c3.9-2.2,7.8-4.4,11.7-6.6c0.1-0.1,0.3-0.2,0.5-0.3c-2.2-1.3-4.3-2.5-6.4-3.8c-0.1,0.1-0.2,0.1-0.2,0.2c-4,3.2-8.6,3.5-13,0.9
		c-0.1-0.1-0.4-0.1-0.6,0c-0.9,0.5-1.8,1.1-2.7,1.6C14,23.8,13.3,24.3,12.6,24.7z M4.4,29.8C4.5,29.9,4.6,30,4.7,30
		c3.9,2.3,7.9,4.5,11.8,6.8c0.3,0.2,0.4,0.1,0.6,0c1.9-1.2,3.8-2.4,5.6-3.5c0.1-0.1,0.2-0.2,0.3-0.2C22.9,33,22.9,33,22.9,33
		c-4-2.3-8-4.5-12.1-6.8c-0.1-0.1-0.4,0-0.6,0c-1,0.6-1.9,1.2-2.9,1.8C6.4,28.5,5.4,29.2,4.4,29.8z M45.3,29.2
		C45.2,29.1,45,29,44.9,29c-1.6-1-3.2-1.9-4.7-2.9c-0.3-0.2-0.5-0.2-0.9,0c-4,2.2-8,4.5-11.9,6.7c-0.1,0.1-0.3,0.2-0.5,0.3
		c0.2,0.1,0.3,0.2,0.4,0.3c1.5,1.1,3,2.2,4.5,3.3c0.3,0.2,0.5,0.2,0.8,0c4.1-2.4,8.1-4.8,12.2-7.2C45.1,29.4,45.2,29.3,45.3,29.2z
		 M26.1,34.9c0,4.1,0,8,0,12.1c0.2-0.1,0.4-0.2,0.5-0.3c3.5-2,7-4,10.5-5.9c1.1-0.6,1.5-1.2,1.4-2.4c-0.1-0.9,0-1.8,0-2.8
		c-0.2,0.1-0.4,0.2-0.5,0.3c-1.8,1.1-3.6,2.1-5.4,3.2c-0.3,0.2-0.4,0.2-0.7,0c-0.7-0.6-1.5-1.1-2.3-1.7
		C28.4,36.6,27.3,35.8,26.1,34.9z M11.6,36.4c0,1.1,0,2.1,0,3.2c0,0.4,0.1,0.6,0.4,0.7c3.8,2.1,7.6,4.3,11.4,6.4
		c0.1,0.1,0.3,0.2,0.5,0.3c0-4,0-8,0-12.1c-0.2,0.1-0.3,0.2-0.5,0.3c-2.1,1.3-4.2,2.6-6.3,3.9c-0.3,0.2-0.5,0.2-0.8,0
		c-1.4-0.8-2.8-1.6-4.2-2.4C12,36.6,11.8,36.5,11.6,36.4z M35.2,13.6c-0.3,2.2-1.1,4-2.5,5.7c0.1,0.1,0.2,0.1,0.2,0.2
		c2.1,1.2,4.1,2.4,6.2,3.7c0.3,0.2,0.4,0.1,0.6,0c1.6-1,3.1-2,4.7-2.9c0.3-0.2,0.6-0.4,1-0.6C42.1,17.5,38.7,15.6,35.2,13.6z
		 M4.3,19.5c2.1,1.3,4.1,2.6,6.2,3.8c0.1,0.1,0.4,0,0.5-0.1c1.6-0.9,3.1-1.8,4.7-2.8c0.1-0.1,0.2-0.1,0.3-0.2
		c-1.6-1.6-2.6-3.5-3.2-5.7C10,16.2,7.2,17.8,4.3,19.5z"/>
</g>
<g>
	<g>
		<g>
			<circle class="st1" cx="23.8" cy="12.2" r="10.7"/>
		</g>
		<g>
			<path class="st2" d="M29.1,2.8c2,1.9,3.2,4.6,3.2,7.7c0,6-4.8,10.7-10.7,10.7c-1.9,0-3.7-0.5-5.3-1.4c1.9,1.9,4.6,3.1,7.5,3.1
				c6,0,10.7-4.8,10.7-10.7C34.6,8.1,32.4,4.7,29.1,2.8L29.1,2.8z"/>
		</g>
		<g>
			<g>
				<path class="st3" d="M23.8,23.9c-3.1,0-6.1-1.2-8.2-3.4c-2.2-2.2-3.4-5.1-3.4-8.2s1.2-6.1,3.4-8.2s5.1-3.4,8.2-3.4
					S30,1.9,32,4.2s3.4,5.1,3.4,8.2s-1.2,6.1-3.4,8.2C30,22.5,27.1,23.9,23.8,23.9L23.8,23.9z M23.8,2.3c-5.5,0-9.9,4.4-9.9,9.9
					s4.4,9.9,9.9,9.9s9.9-4.4,9.9-9.9S29.3,2.3,23.8,2.3z"/>
			</g>
		</g>
		<g>
			<g>
				<path class="st4" d="M32.2,3.8c-0.2-0.2-0.3-0.3-0.5-0.5c1.9,2.2,2.9,4.8,2.9,7.7c0,3.1-1.2,6.1-3.4,8.2S26,22.5,23,22.5
					c-2.9,0-5.6-1-7.7-2.9c0.2,0.2,0.3,0.3,0.5,0.5c2.2,2.2,5.1,3.4,8.3,3.4s6.1-1.2,8.2-3.4c2-2.2,3.4-5.1,3.4-8.2S34.4,6,32.2,3.8
					L32.2,3.8z"/>
			</g>
		</g>
	</g>
	<g>
		<g>
			<path class="st5" d="M23.8,16.8l-3.9-2.6c0,0-0.2,0,0,0l3.7,5.8c0.2,0.2,0.3,0.2,0.3,0l3.7-5.8c0,0,0-0.2,0,0L24,16.9
				C24,16.9,23.8,16.9,23.8,16.8L23.8,16.8z"/>
		</g>
		<g>
			<path class="st5" d="M28.4,11.8L24.2,4c-0.2-0.2-0.3-0.2-0.3,0l-4.3,7.8H28.4z"/>
		</g>
		<g>
			<path class="st6" d="M23.8,11.8h4.6L24.2,4L24,3.8v8H23.8z"/>
		</g>
		<g>
			<path class="st6" d="M23.8,15.1L19.6,12c-0.2-0.2-0.2-0.3,0-0.3l4.3-3.1c0,0,0.2,0,0.3,0l4.3,3.1c0.2,0.2,0.2,0.3,0,0.3l-4.3,3.1
				C24,15.2,23.8,15.2,23.8,15.1z"/>
		</g>
		<g>
			<path class="st7" d="M24,15.1l4.3-3.1c0.2-0.2,0.2-0.3,0-0.3L24,8.6h-0.2L24,15.1C24,15.2,24,15.2,24,15.1z"/>
		</g>
		<g>
			<path class="st7" d="M27.1,11.5c0,0.2,0,0.2,0,0.3h1.4L24.2,4L24,3.8v1.7L27.1,11.5z"/>
		</g>
		<g>
			<path class="st7" d="M24,20l3.7-5.8c0,0,0-0.2,0,0L24,16.9h-0.2v3.2C24,20,24,20,24,20L24,20z"/>
		</g>
		<g>
			<path class="st8" d="M28.3,11.6l-1.7-1.2l0.5,1c0,0.2,0,0.2,0,0.3L23.8,14v1.2H24l4.3-3.1C28.4,12,28.4,11.8,28.3,11.6L28.3,11.6
				z"/>
		</g>
		<g>
			<path class="st8" d="M27.9,14.2l-2,1.4L24,18.5V20c0,0,0.2,0,0.2-0.2L27.9,14.2L27.9,14.2z"/>
		</g>
	</g>
</g>
</svg>
