<?xml version="1.0" encoding="utf-8"?>
<!-- Generator: Adobe Illustrator 24.2.3, SVG Export Plug-In . SVG Version: 6.00 Build 0)  -->
<svg version="1.1" id="Layer_1" xmlns="http://www.w3.org/2000/svg" xmlns:xlink="http://www.w3.org/1999/xlink" x="0px" y="0px"
	 viewBox="0 0 512 512" style="enable-background:new 0 0 512 512;" xml:space="preserve">
<style type="text/css">
	.st0{fill:#F35111;}
</style>
<path class="st0" d="M230.7,512H25.9c-4.7,0-8.5-3.8-8.5-8.5V384c0-4.7,3.8-8.5,8.5-8.5h204.8c4.7,0,8.5,3.8,8.5,8.5v119.5
	C239.2,508.2,235.4,512,230.7,512z M34.4,494.9h187.7V392.5H34.4V494.9z"/>
<path class="st0" d="M247.7,392.5H8.8c-4.7,0-8.5-3.8-8.5-8.5v-34.1c0-4.7,3.8-8.5,8.5-8.5h238.9c4.7,0,8.5,3.8,8.5,8.5V384
	C256.3,388.7,252.4,392.5,247.7,392.5z M17.3,375.5h221.9v-17.1H17.3V375.5z"/>
<path class="st0" d="M145.3,358.4h-34.1c-14.1,0-25.6-11.5-25.6-25.6s11.5-25.6,25.6-25.6h34.1c14.1,0,25.6,11.5,25.6,25.6
	S159.4,358.4,145.3,358.4z M111.2,324.3c-4.7,0-8.5,3.8-8.5,8.5s3.8,8.5,8.5,8.5h34.1c4.7,0,8.5-3.8,8.5-8.5s-3.8-8.5-8.5-8.5H111.2
	z"/>
<path class="st0" d="M230.7,358.4h-82.9c-4.7,0-8.5-3.8-8.5-8.5c0-4.2,3.1-8.1,7.3-8.7c4.2-0.6,7.3-4.1,7.3-8.4c0-3.6-2.3-6.8-5.8-8
	c-2.6-0.9-4.5-3-5.3-5.5c-0.8-2.6-0.3-5.4,1.3-7.6c6-8,20.1-21.5,47.6-21.5c10.9,0,20.7,3.2,29.1,9.6c11.5,8.7,18.4,22.9,18.4,38
	v12.1C239.2,354.6,235.4,358.4,230.7,358.4L230.7,358.4z M147.8,349.6L147.8,349.6L147.8,349.6z M169.4,341.3h52.7v-3.6
	c0-9.8-4.4-18.9-11.7-24.4c0,0,0,0,0,0c-5.4-4.1-11.7-6.1-18.8-6.1c-13.2,0-22,4-27.6,8.3c4.3,4.6,6.8,10.8,6.8,17.3
	C170.9,335.8,170.4,338.7,169.4,341.3L169.4,341.3z"/>
<path class="st0" d="M108.7,358.4H25.9c-4.7,0-8.5-3.8-8.5-8.5v-12.1c0-15.1,6.9-29.3,18.4-38c8.4-6.4,18.2-9.6,29.1-9.6
	c27.5,0,41.6,13.5,47.6,21.5c1.6,2.2,2.1,5,1.3,7.6s-2.8,4.7-5.3,5.5c-3.4,1.2-5.8,4.4-5.8,8c0,4.2,3.1,7.8,7.3,8.4
	c4.2,0.6,7.3,4.2,7.3,8.4C117.3,354.3,113.5,358.4,108.7,358.4z M34.4,341.3h52.7c-1-2.7-1.5-5.6-1.5-8.5c0-6.6,2.5-12.7,6.8-17.3
	c-5.6-4.3-14.4-8.3-27.6-8.3c-7.1,0-13.4,2.1-18.8,6.1c-7.3,5.5-11.7,14.6-11.7,24.4L34.4,341.3z"/>
<path class="st0" d="M153.9,512h-51.2c-4.7,0-8.5-3.8-8.5-8.5V384c0-4.7,3.8-8.5,8.5-8.5h51.2c4.7,0,8.5,3.8,8.5,8.5v119.5
	C162.4,508.2,158.6,512,153.9,512z M111.2,494.9h34.1V392.5h-34.1V494.9z"/>
<path class="st0" d="M384.3,256c-70.6,0-128-57.4-128-128S313.7,0,384.3,0s128,57.4,128,128S454.8,256,384.3,256z M384.3,17.1
	c-61.2,0-110.9,49.8-110.9,110.9s49.8,110.9,110.9,110.9S495.2,189.2,495.2,128S445.4,17.1,384.3,17.1z"/>
<path class="st0" d="M426.9,153.6c-1.1,0-2.1-0.2-3.2-0.6l-39.5-15.8L344.8,153c-3.3,1.3-7,0.5-9.4-2.2c-2.4-2.6-2.9-6.4-1.4-9.6
	l42.7-85.3c2.9-5.8,12.4-5.8,15.3,0l42.7,85.3c1.6,3.2,1,7-1.4,9.6C431.5,152.6,429.3,153.6,426.9,153.6L426.9,153.6z M384.3,119.5
	c1.1,0,2.2,0.2,3.2,0.6l21.8,8.7l-25-50l-25,50l21.8-8.7C382.1,119.7,383.2,119.5,384.3,119.5L384.3,119.5z"/>
<path class="st0" d="M384.3,204.8c-2.5,0-4.9-1.1-6.6-3.1L335,150.5c-1.7-2.1-2.4-4.9-1.7-7.6c0.7-2.7,2.6-4.8,5.1-5.8l42.7-17.1
	c2-0.8,4.3-0.8,6.3,0l42.7,17.1c2.5,1,4.4,3.2,5.1,5.8c0.7,2.7,0,5.5-1.7,7.6l-42.7,51.2C389.2,203.7,386.8,204.8,384.3,204.8
	L384.3,204.8z M355.7,148.6l28.6,34.3l28.6-34.3l-28.6-11.4L355.7,148.6z"/>
<path class="st0" d="M384.3,512c-2,0-4.1-0.7-5.7-2.2l-76.8-68.3c-2.6-2.3-3.6-6.1-2.3-9.4s4.4-5.5,8-5.5h34.1v-128
	c0-4.7,3.8-8.5,8.5-8.5h68.3c4.7,0,8.5,3.8,8.5,8.5v128h34.1c3.5,0,6.7,2.2,8,5.5c1.3,3.3,0.3,7.1-2.3,9.4l-76.8,68.3
	C388.3,511.3,386.3,512,384.3,512z M329.9,443.7l54.4,48.3l54.4-48.3h-20.2c-4.7,0-8.5-3.8-8.5-8.5v-128h-51.2v128
	c0,4.7-3.8,8.5-8.5,8.5H329.9z"/>
<path class="st0" d="M162.4,264.5H94.1c-4.7,0-8.5-3.8-8.5-8.5V128H51.5c-3.5,0-6.7-2.2-8-5.5s-0.3-7.1,2.3-9.4l76.8-68.3
	c3.2-2.9,8.1-2.9,11.3,0l76.8,68.3c2.6,2.3,3.6,6.1,2.3,9.4c-1.3,3.3-4.4,5.5-8,5.5h-34.1v128C170.9,260.7,167.1,264.5,162.4,264.5
	L162.4,264.5z M102.7,247.5h51.2v-128c0-4.7,3.8-8.5,8.5-8.5h20.2l-54.4-48.3l-54.4,48.3h20.2c4.7,0,8.5,3.8,8.5,8.5L102.7,247.5z"
	/>
</svg>
