<?xml version="1.0" encoding="utf-8"?>
<!-- Generator: Adobe Illustrator 24.2.3, SVG Export Plug-In . SVG Version: 6.00 Build 0)  -->
<svg version="1.1" id="Capa_1" xmlns="http://www.w3.org/2000/svg" xmlns:xlink="http://www.w3.org/1999/xlink" x="0px" y="0px"
	 viewBox="0 0 512 512" style="enable-background:new 0 0 512 512;" xml:space="preserve">
<style type="text/css">
	.st0{fill:#FFFFFF;}
</style>
<g>
	<g>
		<path class="st0" d="M256,0C114.8,0,0,114.8,0,256s114.8,256,256,256c141.2,0,256-114.8,256-256S397.2,0,256,0z M256,474.6
			c-120.6,0-218.6-98.1-218.6-218.6S135.4,37.4,256,37.4S474.6,135.4,474.6,256C474.6,376.5,376.5,474.6,256,474.6z"/>
	</g>
</g>
<g>
	<g>
		<path class="st0" d="M343.2,256h-81V143.9c0-10.3-8.4-18.7-18.7-18.7s-18.7,8.4-18.7,18.7v130.8c0,10.3,8.4,18.7,18.7,18.7h99.7
			c10.3,0,18.7-8.4,18.7-18.7S353.5,256,343.2,256z"/>
	</g>
</g>
</svg>
