<?xml version="1.0" encoding="utf-8"?>
<!-- Generator: Adobe Illustrator 24.2.3, SVG Export Plug-In . SVG Version: 6.00 Build 0)  -->
<svg version="1.1" id="Capa_1" xmlns="http://www.w3.org/2000/svg" xmlns:xlink="http://www.w3.org/1999/xlink" x="0px" y="0px"
	 viewBox="0 0 32.8 32.8" style="enable-background:new 0 0 32.8 32.8;" xml:space="preserve">
<style type="text/css">
	.st0{fill:#009404;}
</style>
<g>
	<path class="st0" d="M30.4,15.9c-0.8,0.9-1.9,1.4-3.1,1.4c-0.9,0-1.8-0.3-2.6-1l-4.4-3.8v16.1c0,2.2-1.8,4-4,4s-4-1.8-4-4V12.6
		L8,16.4c-1.7,1.4-4.2,1.2-5.6-0.5c-1.4-1.7-1.2-4.2,0.5-5.6l11-9.4c1.5-1.3,3.7-1.3,5.2,0l11,9.4C31.7,11.7,31.9,14.3,30.4,15.9z"
		/>
</g>
</svg>
